# xmcd
#
# Track frame offsets:
#	150
#	20722
#	37092
#	67537
#	95757
#	113435
#	129175
#	146895
#	163447
#	183480
#	203867
#	223560
#	238020
#	264337
#	290875
#
# Disc length: 4189 seconds
#
# Revision: 1
# Processed by: cddbd v1.4PL0 Copyright (c) Steve Scherf et al.
# Submitted via: audiograbber 1.80.04
#
DISCID=e5105b0f
DTITLE=Radoslav Lorkovic - Live From Castello Scaligero, Malcesine, Italy
DYEAR=1997
DGENRE=Blues
TTITLE0=Doin' It
TTITLE1=Don't Start Me Talkin'
TTITLE2=Northwind
TTITLE3=Blues in C Minor
TTITLE4=High Blood Pressure
TTITLE5=Headin' South
TTITLE6=Canadian Highway
TTITLE7=Mardi Gras in New Orleans
TTITLE8=8 to the Bar
TTITLE9=Iko Iko
TTITLE10=Meet the Boys on the Battlefront
TTITLE11=Louisiana 1927
TTITLE12=Mexican Cafe
TTITLE13=What'd I Say
TTITLE14=One More Goodnight Kiss
EXTD=
EXTT0=
EXTT1=
EXTT2=
EXTT3=
EXTT4=
EXTT5=
EXTT6=
EXTT7=
EXTT8=
EXTT9=
EXTT10=
EXTT11=
EXTT12=
EXTT13=
EXTT14=
PLAYORDER=
